<?xml version="1.0" encoding="utf-8"?>
<!-- Generator: Adobe Illustrator 15.1.0, SVG Export Plug-In . SVG Version: 6.00 Build 0)  -->
<!DOCTYPE svg PUBLIC "-//W3C//DTD SVG 1.1//EN" "http://www.w3.org/Graphics/SVG/1.1/DTD/svg11.dtd">
<svg version="1.1" id="Layer_1" xmlns="http://www.w3.org/2000/svg" xmlns:xlink="http://www.w3.org/1999/xlink" x="0px" y="0px"
	 width="32px" height="32px" viewBox="0 0 32 32" enable-background="new 0 0 32 32" xml:space="preserve">
<path fill="#FFFFFF" d="M32,10.9L32,10.9c0-0.1,0-0.1,0-0.2c0,0,0,0,0-0.1v-0.1c0,0,0,0,0-0.1v-0.1c0,0,0,0,0-0.1c0,0,0-0.1-0.1-0.1
	c0,0,0,0,0-0.1c0,0,0-0.1-0.101-0.1c0,0,0,0-0.1-0.1c0,0-0.101,0-0.101-0.1c0,0,0,0-0.1,0l0,0L16.8,0.2c-0.5-0.3-1.1-0.3-1.5,0
	L0.6,10l0,0c0,0,0,0-0.1,0c0,0-0.1,0-0.1,0.1c0,0,0,0-0.1,0.1c0,0,0,0-0.1,0.1c0,0,0,0,0,0.1c0,0,0,0.1-0.1,0.1c0,0,0,0,0,0.1v0.1
	c0,0,0,0,0,0.1v0.1c0,0,0,0,0,0.1v0.1c0,0,0,0,0,0.1c0,0.1,0,0.1,0,0.2v9.7c0,0.101,0,0.101,0,0.2c0,0,0,0,0,0.101v0.1
	c0,0,0,0,0,0.1V21.7c0,0,0,0,0,0.1V21.9c0,0,0,0,0,0.1c0,0,0,0.1,0.1,0.1c0,0,0,0,0,0.101c0,0,0,0.1,0.1,0.1c0,0,0,0,0.1,0.101
	c0,0,0.1,0,0.1,0.1c0,0,0,0,0.1,0l0,0l14.6,9.8c0.2,0.2,0.5,0.2,0.8,0.2s0.5-0.1,0.8-0.2L31.4,22l0,0c0,0,0,0,0.1,0
	c0,0,0.1,0,0.1-0.1c0,0,0,0,0.101-0.101c0,0,0,0,0.1-0.1c0,0,0,0,0-0.101c0,0,0-0.1,0.101-0.1c0,0,0,0,0-0.1V21.3c0,0,0,0,0-0.1
	V21.1c0,0,0,0,0-0.1v-0.1c0,0,0,0,0-0.101c0-0.1,0-0.1,0-0.2v-9.7C32,11.1,32,11,32,10.9z M17.4,3.9l10.8,7.2l-4.8,3.2l-6-4V3.9z
	 M14.6,3.9v6.4l-6,4l-4.8-3.2L14.6,3.9z M2.8,13.7L6.2,16l-3.4,2.3V13.7z M14.6,28.1L3.9,20.9l4.8-3.2l6,4V28.1H14.6z M16,19.3
	L11.1,16l4.9-3.3l4.9,3.3L16,19.3z M17.4,28.1V21.7l6-4l4.8,3.2L17.4,28.1z M29.2,18.3L25.8,16l3.4-2.3V18.3z"/>
</svg>
