<svg xmlns="http://www.w3.org/2000/svg" width="340" height="196" viewBox="0 0 340 196"><g fill="none" stroke="#EDEDED" stroke-width="14" stroke-miterlimit="10"><path d="M7 7h326v182H7z"/><path d="M7 7h326v182H7z"/></g><g fill="#EDEDED"><path d="M72 169V57H30V27h122v30h-42v112z"/><path d="M72.633 168.295v-111.2h-42.2v-29.8h121.6v29.8h-42.2v111.2h-37.2zM277 169V95.421L250.6 145h-23.938L200.11 96.722 199.912 169H167V27h29.801l42.227 79.876L281.059 27H310v142z"/><path d="M281.229 27.295h28.4v141h-32v-74l-27.2 50.599h-23.6l-27-49.399-.2 72.799h-32v-141h29l42.399 80.2 42.201-80.199z"/></g><g fill="#EDEDED"><path d="M9 27h29v30H9z"/><path d="M9 27.295h29v29.813H9zM72 168h38v16H72z"/><path d="M72.631 168h37.234v16H72.631z"/></g><g fill="#EDEDED"><path d="M167 168h33v16h-33z"/><path d="M167.63 168h31.983v16H167.63zM277 166h33v17h-33z"/><path d="M277.646 166.396h31.983v16h-31.983z"/></g></svg>